<?xml version="1.0" encoding="utf-8"?>
<svg version="1.1" xmlns:xlink="http://www.w3.org/1999/xlink" width="50px" height="50px" xmlns="http://www.w3.org/2000/svg">
  <g>
    <path d="M 50 25  C 50 11.1895161290323  38.8104838709677 0  25 0  C 11.1895161290323 0  0 11.1895161290323  0 25  C 0 38.8104838709677  11.1895161290323 50  25 50  C 38.8104838709677 50  50 38.8104838709677  50 25  Z M 45.1612903225806 25  C 45.1612903225806 36.1189516129032  36.1189516129032 45.1612903225806  25 45.1612903225806  C 13.8810483870968 45.1612903225806  4.83870967741936 36.1189516129032  4.83870967741936 25  C 4.83870967741936 13.8810483870968  13.8810483870968 4.83870967741936  25 4.83870967741936  C 36.1189516129032 4.83870967741936  45.1612903225806 13.8810483870968  45.1612903225806 25  Z M 13.7096774193548 20.1612903225806  C 13.7096774193548 21.945564516129  15.1512096774194 23.3870967741935  16.9354838709677 23.3870967741935  C 18.7197580645161 23.3870967741935  20.1612903225806 21.945564516129  20.1612903225806 20.1612903225806  C 20.1612903225806 18.3770161290323  18.7197580645161 16.9354838709677  16.9354838709677 16.9354838709677  C 15.1512096774194 16.9354838709677  13.7096774193548 18.3770161290323  13.7096774193548 20.1612903225806  Z M 36.2903225806452 20.1612903225806  C 36.2903225806452 18.3770161290323  34.8487903225806 16.9354838709677  33.0645161290323 16.9354838709677  C 31.2802419354839 16.9354838709677  29.8387096774194 18.3770161290323  29.8387096774194 20.1612903225806  C 29.8387096774194 21.945564516129  31.2802419354839 23.3870967741935  33.0645161290323 23.3870967741935  C 34.8487903225806 23.3870967741935  36.2903225806452 21.945564516129  36.2903225806452 20.1612903225806  Z M 36.2903225806452 33.8709677419355  C 36.2903225806452 32.5403225806452  35.2016129032258 31.4516129032258  33.8709677419355 31  L 16.1290322580645 31  C 14.7983870967742 31.4516129032258  13.7096774193548 32.5403225806452  13.7096774193548 33.8709677419355  C 13.7096774193548 35.2016129032258  14.7983870967742 36.2903225806452  16.1290322580645 36  L 33.8709677419355 36  C 35.2016129032258 36.2903225806452  36.2903225806452 35.2016129032258  36.2903225806452 33.8709677419355  Z " fill-rule="nonzero" fill="#5e27cb" stroke="none" />
  </g>
</svg>