<?xml version="1.0" encoding="utf-8"?>
<svg version="1.1" xmlns:xlink="http://www.w3.org/1999/xlink" width="20px" height="20px" xmlns="http://www.w3.org/2000/svg">
  <g>
    <path d="M 20 9.21875  C 20 8.9598828125  19.7901171875 8.75  19.53125 8.75  L 18.34515625 8.75  C 17.80171875 5.0908203125  14.9091796875 2.19828125  11.25 1.65484375  L 11.25 0.46875  C 11.25 0.2098828125  11.0401171875 0  10.78125 0  L 9.21875 0  C 8.9598828125 0  8.75 0.2098828125  8.75 0.46875  L 8.75 1.65484375  C 5.0908203125 2.19828125  2.19828125 5.0908203125  1.65484375 8.75  L 0.46875 8.75  C 0.2098828125 8.75  0 8.9598828125  0 9.21875  L 0 10.78125  C 0 11.0401171875  0.2098828125 11.25  0.46875 11.25  L 1.65484375 11.25  C 2.19828125 14.9091796875  5.0908203125 17.80171875  8.75 18.34515625  L 8.75 19.53125  C 8.75 19.7901171875  8.9598828125 20  9.21875 20  L 10.78125 20  C 11.0401171875 20  11.25 19.7901171875  11.25 19.53125  L 11.25 18.34515625  C 14.9091796875 17.80171875  17.80171875 14.9091796875  18.34515625 11.25  L 19.53125 11.25  C 19.7901171875 11.25  20 11.0401171875  20 10.78125  L 20 9.21875  Z M 15.806015625 11.25  C 15.3215625 13.522421875  13.5251171875 15.3209765625  11.25 15.806015625  L 11.25 14.21875  C 11.25 13.9598828125  11.0401171875 13.75  10.78125 13.75  L 9.21875 13.75  C 8.9598828125 13.75  8.75 13.9598828125  8.75 14.21875  L 8.75 15.806015625  C 6.477578125 15.3215625  4.6790234375 13.5251171875  4.193984375 11.25  L 5.78125 11.25  C 6.0401171875 11.25  6.25 11.0401171875  6.25 10.78125  L 6.25 9.21875  C 6.25 8.9598828125  6.0401171875 8.75  5.78125 8.75  L 4.193984375 8.75  C 4.6784375 6.477578125  6.4748828125 4.6790234375  8.75 4.193984375  L 8.75 5.78125  C 8.75 6.0401171875  8.9598828125 6.25  9.21875 6.25  L 10.78125 6.25  C 11.0401171875 6.25  11.25 6.0401171875  11.25 5.78125  L 11.25 4.193984375  C 13.522421875 4.6784375  15.3209765625 6.4748828125  15.806015625 8.75  L 14.21875 8.75  C 13.9598828125 8.75  13.75 8.9598828125  13.75 9.21875  L 13.75 10.78125  C 13.75 11.0401171875  13.9598828125 11.25  14.21875 11.25  L 15.806015625 11.25  Z M 10 8.75  C 10.6903515625 8.75  11.25 9.3096484375  11.25 10  C 11.25 10.6903515625  10.6903515625 11.25  10 11.25  C 9.3096484375 11.25  8.75 10.6903515625  8.75 10  C 8.75 9.3096484375  9.3096484375 8.75  10 8.75  Z " fill-rule="nonzero" fill="#5e27cb" stroke="none" />
  </g>
</svg>