<?xml version="1.0" encoding="utf-8"?>
<svg version="1.1" xmlns:xlink="http://www.w3.org/1999/xlink" width="50px" height="50px" xmlns="http://www.w3.org/2000/svg">
  <g>
    <path d="M 50 25  C 50 11.1895161290323  38.8104838709677 0  25 0  C 11.1895161290323 0  0 11.1895161290323  0 25  C 0 38.8104838709677  11.1895161290323 50  25 50  C 38.8104838709677 50  50 38.8104838709677  50 25  Z M 45.1612903225806 25  C 45.1612903225806 36.1189516129032  36.1189516129032 45.1612903225806  25 45.1612903225806  C 13.8810483870968 45.1612903225806  4.83870967741936 36.1189516129032  4.83870967741936 25  C 4.83870967741936 13.8810483870968  13.8810483870968 4.83870967741936  25 4.83870967741936  C 36.1189516129032 4.83870967741936  45.1612903225806 13.8810483870968  45.1612903225806 25  Z M 41.1290322580645 21.7741935483871  C 41.1290322580645 17.7620967741935  37.883064516129 14.5161290322581  33.8709677419355 14.5161290322581  C 29.8588709677419 14.5161290322581  26.6129032258064 17.7620967741935  26.6129032258064 21.7741935483871  C 26.6129032258064 25.7862903225806  29.8588709677419 29.0322580645161  33.8709677419355 29.0322580645161  C 37.883064516129 29.0322580645161  41.1290322580645 25.7862903225806  41.1290322580645 21.7741935483871  Z M 37.9032258064516 21.7741935483871  C 37.9032258064516 24.0020161290323  36.0987903225806 25.8064516129032  33.8709677419355 25.8064516129032  C 31.6431451612903 25.8064516129032  29.8387096774194 24.0020161290323  29.8387096774194 21.7741935483871  C 29.8387096774194 20.4032258064516  30.5745967741936 19.2439516129032  31.6229838709677 18.5181451612903  C 31.5221774193548 18.7802419354839  31.4516129032258 19.0524193548387  31.4516129032258 19.3548387096774  C 31.4516129032258 20.695564516129  32.5302419354839 21.7741935483871  33.8709677419355 21.7741935483871  C 35.2116935483871 21.7741935483871  36.2903225806452 20.695564516129  36.2903225806452 19.3548387096774  C 36.2903225806452 19.0625  36.2197580645161 18.7802419354839  36.1189516129032 18.5181451612903  C 37.1673387096774 19.2439516129032  37.9032258064516 20.4032258064516  37.9032258064516 21.7741935483871  Z M 16.1290322580645 29.0322580645161  C 20.1411290322581 29.0322580645161  23.3870967741935 25.7862903225806  23.3870967741935 21.7741935483871  C 23.3870967741935 17.7620967741935  20.1411290322581 14.5161290322581  16.1290322580645 14.5161290322581  C 12.116935483871 14.5161290322581  8.87096774193548 17.7620967741935  8.87096774193548 21.7741935483871  C 8.87096774193548 25.7862903225806  12.116935483871 29.0322580645161  16.1290322580645 29.0322580645161  Z M 16.1290322580645 25.8064516129032  C 13.9012096774194 25.8064516129032  12.0967741935484 24.0020161290323  12.0967741935484 21.7741935483871  C 12.0967741935484 20.4032258064516  12.8326612903226 19.2439516129032  13.8810483870968 18.5181451612903  C 13.7802419354839 18.7802419354839  13.7096774193548 19.0524193548387  13.7096774193548 19.3548387096774  C 13.7096774193548 20.695564516129  14.7883064516129 21.7741935483871  16.1290322580645 21.7741935483871  C 17.4697580645161 21.7741935483871  18.5483870967742 20.695564516129  18.5483870967742 19.3548387096774  C 18.5483870967742 19.0625  18.4778225806452 18.7802419354839  18.3770161290323 18.5181451612903  C 19.4254032258065 19.2439516129032  20.1612903225806 20.4032258064516  20.1612903225806 21.7741935483871  C 20.1612903225806 24.0020161290323  18.3568548387097 25.8064516129032  16.1290322580645 25.8064516129032  Z M 33.8709677419355 37.0967741935484  C 33.8709677419355 35.7661290322581  32.7822580645161 34.6774193548387  31.4516129032258 34  L 18.5483870967742 34  C 17.2177419354839 34.6774193548387  16.1290322580645 35.7661290322581  16.1290322580645 37.0967741935484  C 16.1290322580645 38.4274193548387  17.2177419354839 39.5161290322581  18.5483870967742 39  L 31.4516129032258 39  C 32.7822580645161 39.5161290322581  33.8709677419355 38.4274193548387  33.8709677419355 37.0967741935484  Z " fill-rule="nonzero" fill="#5e27cb" stroke="none" />
  </g>
</svg>