<?xml version="1.0" encoding="utf-8"?>
<svg version="1.1" xmlns:xlink="http://www.w3.org/1999/xlink" width="50px" height="50px" xmlns="http://www.w3.org/2000/svg">
  <g>
    <path d="M 50 25  C 50 11.1895161290323  38.8104838709677 0  25 0  C 11.1895161290323 0  0 11.1895161290323  0 25  C 0 38.8104838709677  11.1895161290323 50  25 50  C 38.8104838709677 50  50 38.8104838709677  50 25  Z M 45.1612903225806 25  C 45.1612903225806 36.1189516129032  36.1189516129032 45.1612903225806  25 45.1612903225806  C 13.8810483870968 45.1612903225806  4.83870967741936 36.1189516129032  4.83870967741936 25  C 4.83870967741936 13.8810483870968  13.8810483870968 4.83870967741936  25 4.83870967741936  C 36.1189516129032 4.83870967741936  45.1612903225806 13.8810483870968  45.1612903225806 25  Z M 33.75 34.7379032258065  C 31.5725806451613 32.1370967741936  28.3870967741935 30.6451612903226  25 30.6451612903226  C 21.6129032258065 30.6451612903226  18.4274193548387 32.1370967741936  16.25 34.7379032258065  C 15.3931451612903 35.7661290322581  15.5342741935484 37.2883064516129  16.5625 38.1451612903226  C 17.5907258064516 39.0020161290323  19.1129032258065 38.8709677419355  19.9697580645161 37.8427419354839  C 22.4697580645161 34.8487903225806  27.5302419354839 34.8487903225806  30.0302419354839 37.8427419354839  C 30.8467741935484 38.820564516129  32.3689516129032 39.0423387096774  33.4375 38.1451612903226  C 34.4657258064516 37.2883064516129  34.5967741935484 35.7661290322581  33.75 34.7379032258065  Z M 16.9354838709677 26.6229838709677  C 18.7197580645161 26.6229838709677  20.1612903225806 25.1713709677419  20.1612903225806 23.3870967741935  C 21.1995967741935 23.3870967741935  22.1673387096774 22.7116935483871  22.4798387096774 21.6633064516129  C 22.8629032258065 20.383064516129  22.1370967741935 19.0322580645161  20.8568548387097 18.6491935483871  L 12.7923387096774 16.2298387096774  C 11.5020161290323 15.8366935483871  10.1612903225806 16.5725806451613  9.77822580645161 17.8528225806452  C 9.39516129032258 19.133064516129  10.1209677419355 20.4838709677419  11.4012096774194 20.866935483871  L 14.2439516129032 21.7237903225806  C 13.9314516129032 22.2177419354839  13.7096774193548 22.7721774193548  13.7096774193548 23.3971774193548  C 13.7096774193548 25.1814516129032  15.1512096774194 26.6229838709677  16.9354838709677 26.6229838709677  Z M 38.5987903225806 20.8568548387097  C 39.8790322580645 20.4838709677419  40.6048387096774 19.133064516129  40.2217741935484 17.8528225806452  C 39.8387096774194 16.5725806451613  38.4979838709677 15.8467741935484  37.2076612903226 16.2298387096774  L 29.1431451612903 18.6491935483871  C 27.8629032258065 19.0322580645161  27.1370967741936 20.383064516129  27.5201612903226 21.6633064516129  C 27.8326612903226 22.7116935483871  28.8004032258064 23.3870967741935  29.8387096774194 23.3870967741935  C 29.8387096774194 25.1713709677419  31.2802419354839 26.6129032258064  33.0645161290323 26.6129032258064  C 34.8487903225806 26.6129032258064  36.2903225806452 25.1713709677419  36.2903225806452 23.3870967741935  C 36.2903225806452 22.7620967741935  36.0685483870968 22.2076612903226  35.7560483870968 21.7137096774194  L 38.5987903225806 20.8568548387097  Z " fill-rule="nonzero" fill="#5e27cb" stroke="none" />
  </g>
</svg>