<?xml version="1.0" encoding="utf-8"?>
<svg version="1.1" xmlns:xlink="http://www.w3.org/1999/xlink" width="20px" height="20px" xmlns="http://www.w3.org/2000/svg">
  <g>
    <path d="M 19.711171875 11.7480155642023  L 17.914921875 9.99688715953307  L 19.7112109375 8.24571984435798  C 20.2466796875 7.74077821011673  19.9969921875 6.84342412451362  19.2946484375 6.67610894941634  L 16.8473828125 6.05392996108949  L 17.537265625 3.64089494163424  C 17.7322265625 2.9468093385214  17.0751953125 2.29214007782101  16.3786328125 2.4863813229572  L 13.9569921875 3.17381322957198  L 13.3326171875 0.735252918287937  C 13.1673828125 0.0465758754863813  12.2564453125 -0.205291828793774  11.757421875 0.320155642023346  L 10 2.12334630350195  L 8.2426171875 0.320194552529183  C 7.7492578125 -0.199299610894942  6.83453125 0.038715953307393  6.667421875 0.735291828793774  L 6.043046875 3.17385214007782  L 3.6213671875 2.48642023346303  C 2.924609375 2.29210116731518  2.2678125 2.94700389105058  2.462734375 3.64093385214008  L 3.1526171875 6.05396887159533  L 0.7053515625 6.67614785992218  C 0.0026953125 6.84350194552529  -0.246484375 7.74101167315175  0.28875 8.24571984435798  L 2.0850390625 9.99688715953307  L 0.28875 11.7480155642023  C -0.24671875 12.2529571984436  0.00296875000000012 13.1503112840467  0.7053125 13.317626459144  L 3.152578125 13.9398054474708  L 2.4626953125 16.3528404669261  C 2.267734375 17.0469260700389  2.924765625 17.7015953307393  3.621328125 17.5073540856031  L 6.04296875 16.8199221789883  L 6.66734375 19.2584824902724  C 6.8407421875 19.9812451361868  7.74921875 20.1930350194553  8.2425390625 19.673579766537  L 10 17.8836575875486  L 11.7573828125 19.673579766537  C 12.2456640625 20.1984046692607  13.163125 19.9648638132296  13.332578125 19.2584824902724  L 13.956953125 16.8199221789883  L 16.37859375 17.5073540856031  C 17.0753125 17.701673151751  17.7321484375 17.0467704280156  17.5372265625 16.3528404669261  L 16.84734375 13.9398054474708  L 19.294609375 13.317626459144  C 19.9972265625 13.150233463035  20.24640625 12.2527626459144  19.711171875 11.7480155642023  Z " fill-rule="nonzero" fill="#d9001b" stroke="none" />
  </g>
</svg>