<?xml version="1.0" encoding="utf-8"?>
<svg version="1.1" xmlns:xlink="http://www.w3.org/1999/xlink" width="50px" height="50px" xmlns="http://www.w3.org/2000/svg">
  <g>
    <path d="M 50 25  C 50 11.1895161290323  38.8104838709677 0  25 0  C 11.1895161290323 0  0 11.1895161290323  0 25  C 0 38.8104838709677  11.1895161290323 50  25 50  C 38.8104838709677 50  50 38.8104838709677  50 25  Z M 45.1612903225806 25  C 45.1612903225806 36.1189516129032  36.1189516129032 45.1612903225806  25 45.1612903225806  C 13.8810483870968 45.1612903225806  4.83870967741936 36.1189516129032  4.83870967741936 25  C 4.83870967741936 13.8810483870968  13.8810483870968 4.83870967741936  25 4.83870967741936  C 36.1189516129032 4.83870967741936  45.1612903225806 13.8810483870968  45.1612903225806 25  Z M 13.7096774193548 20.1612903225806  C 13.7096774193548 21.945564516129  15.1512096774194 23.3870967741935  16.9354838709677 23.3870967741935  C 18.7197580645161 23.3870967741935  20.1612903225806 21.945564516129  20.1612903225806 20.1612903225806  C 20.1612903225806 18.3770161290323  18.7197580645161 16.9354838709677  16.9354838709677 16.9354838709677  C 15.1512096774194 16.9354838709677  13.7096774193548 18.3770161290323  13.7096774193548 20.1612903225806  Z M 29.8387096774194 20.1612903225806  C 29.8387096774194 21.945564516129  31.2802419354839 23.3870967741935  33.0645161290323 23.3870967741935  C 34.8487903225806 23.3870967741935  36.2903225806452 21.945564516129  36.2903225806452 20.1612903225806  C 36.2903225806452 18.3770161290323  34.8487903225806 16.9354838709677  33.0645161290323 16.9354838709677  C 31.2802419354839 16.9354838709677  29.8387096774194 18.3770161290323  29.8387096774194 20.1612903225806  Z M 36.875 30.3931451612903  C 35.8568548387097 29.5463709677419  34.3245967741935 29.6774193548387  33.4677419354839 30.7056451612903  C 31.3709677419355 33.2258064516129  28.2762096774194 34.6774193548387  25 34.6774193548387  C 21.7237903225806 34.6774193548387  18.6290322580645 33.2358870967742  16.5322580645161 30.7056451612903  C 15.6754032258065 29.6774193548387  14.1431451612903 29.5463709677419  13.125 30.3931451612903  C 12.0967741935484 31.25  11.9657258064516 32.7721774193548  12.8125 33.8004032258065  C 15.8366935483871 37.429435483871  20.2822580645161 39.5060483870968  25 39.5060483870968  C 29.7177419354839 39.5060483870968  34.1633064516129 37.429435483871  37.1875 33.8004032258065  C 38.0443548387097 32.7721774193548  37.9032258064516 31.25  36.875 30.3931451612903  Z " fill-rule="nonzero" fill="#aaaaaa" stroke="none" />
  </g>
</svg>